<svg xmlns="http://www.w3.org/2000/svg" viewBox="0 0 340 160"><defs><style>.cls-1{fill:#ccf8ff;opacity:0.14;}.cls-1,.cls-2,.cls-3{stroke:#f7931e;stroke-miterlimit:10;}.cls-1,.cls-2{stroke-width:3px;}.cls-2{fill:none;}.cls-3{fill:#f7931e;stroke-width:2px;}</style></defs><g id="Lag_15" data-name="Lag 15"><circle class="cls-1" cx="82" cy="80.27" r="76.35"/><circle class="cls-2" cx="82" cy="80.27" r="76.35"/><path class="cls-3" d="M335.34,108.47a4.51,4.51,0,0,1-5,4C284,92.38,226.47,78.91,167.81,94.8q-5,1.36-9.9,3a8.17,8.17,0,0,0,.89-5.27c-.3-1.52-.94-1.87-1-3.32,0-1.71.82-2.41,1.49-4.38a12.07,12.07,0,0,0,.54-5q4.65,3.16,9.63,6.09c54.1,31.73,116.13,27.59,161.85,17.59C333.89,104.27,335.56,106.42,335.34,108.47Z"/></g></svg>