<svg xmlns="http://www.w3.org/2000/svg" xmlns:xlink="http://www.w3.org/1999/xlink" viewBox="0 0 570 770"><defs><style>.cls-1{fill:#bfac88;}.cls-2{mask:url(#mask);}.cls-3{fill:#e5e1d1;}</style><mask id="mask" x="-4.91" y="-15.05" width="587.8" height="820.78" maskUnits="userSpaceOnUse"><image width="1920" height="1375" transform="translate(-4.91 805.74) rotate(-90) scale(0.43)" xlink:href="Grunge-Textures/Grunge%20Textures/Texture3.png"/></mask></defs><g id="page_3_kopi" data-name="page 3 kopi"><path class="cls-1" d="M565.41,766.93A855.49,855.49,0,0,0,419,747.53c-94.66-4.2-144.54,9.66-271.64,16.46-61.22,3.28-111.13,3.35-142.87,2.94V23.76c29.63,1.15,77.23,2.16,135.82-.59C285.32,16.37,379,4.36,379,4.36S446.28-4.27,549.53,22a25.7,25.7,0,0,1,11.29,6.36,16.44,16.44,0,0,1,3.88,6.42,15.67,15.67,0,0,1,.71,4.67Z"/><g class="cls-2"><path class="cls-3" d="M565.41,767.22A855.49,855.49,0,0,0,419,747.82c-94.66-4.2-144.54,9.66-271.64,16.46-61.22,3.27-111.13,3.34-142.87,2.94V24.05c29.63,1.15,77.23,2.15,135.82-.59C285.32,16.66,379,4.64,379,4.64S446.28-4,549.53,22.28a25.7,25.7,0,0,1,11.29,6.36,16.36,16.36,0,0,1,3.88,6.42,15.6,15.6,0,0,1,.71,4.66Z"/></g><image width="3773" height="3588" transform="translate(423.5 615) scale(0.03)" xlink:href="seal.png"/></g></svg>